<svg width="35" height="35" viewBox="0 0 35 35" fill="none" xmlns="http://www.w3.org/2000/svg">
<circle cx="17.4023" cy="17.4022" r="6.96087" fill="#79BFFF"/>
<rect x="16.2421" width="2.32029" height="8.12101" rx="1.16014" fill="#79BFFF"/>
<rect x="16.2421" y="26.6833" width="2.32029" height="8.12101" rx="1.16014" fill="#79BFFF"/>
<rect x="26.6835" y="17.4022" width="2.32029" height="8.12101" rx="1.16014" transform="rotate(-90 26.6835 17.4022)" fill="#79BFFF"/>
<rect x="4.64069" y="6.28119" width="2.32029" height="8.12101" rx="1.16014" transform="rotate(-45 4.64069 6.28119)" fill="#79BFFF"/>
<rect x="23.2029" y="24.8436" width="2.32029" height="8.12101" rx="1.16014" transform="rotate(-45 23.2029 24.8436)" fill="#79BFFF"/>
<rect x="10.3831" y="23.2029" width="2.32029" height="8.12101" rx="1.16014" transform="rotate(45 10.3831 23.2029)" fill="#79BFFF"/>
<rect x="28.9454" y="4.64056" width="2.32029" height="8.12101" rx="1.16014" transform="rotate(45 28.9454 4.64056)" fill="#79BFFF"/>
<rect y="17.4022" width="2.32029" height="8.12101" rx="1.16014" transform="rotate(-90 0 17.4022)" fill="#79BFFF"/>
</svg>
