<svg width="20" height="23" viewBox="0 0 20 23" fill="none" xmlns="http://www.w3.org/2000/svg">
<path fill-rule="evenodd" clip-rule="evenodd" d="M9.73077 0C15.0963 0 19.4615 4.39831 19.4615 9.80508C19.4615 16.4515 11.8468 23 9.73077 23C7.61477 23 0 16.4515 0 9.80508C0 4.39831 4.36528 0 9.73077 0ZM9.73077 1.76923C5.34072 1.76923 1.76923 5.37492 1.76923 9.80508C1.76923 15.4418 8.40267 20.9335 9.73077 21.2261C11.0589 20.9324 17.6923 15.4407 17.6923 9.80508C17.6923 5.37492 14.1208 1.76923 9.73077 1.76923ZM9.73195 5.89744C11.8456 5.89744 13.5653 7.61713 13.5653 9.73195C13.5653 11.8456 11.8456 13.5641 9.73195 13.5641C7.61831 13.5641 5.89862 11.8456 5.89862 9.73195C5.89862 7.61713 7.61831 5.89744 9.73195 5.89744ZM9.73195 7.66667C8.59374 7.66667 7.66785 8.59256 7.66785 9.73195C7.66785 10.8702 8.59374 11.7949 9.73195 11.7949C10.8702 11.7949 11.7961 10.8702 11.7961 9.73195C11.7961 8.59256 10.8702 7.66667 9.73195 7.66667Z" fill="#79BFFF"/>
</svg>
